<svg id="visual" viewBox="0 0 900 600" width="900" height="600" xmlns="http://www.w3.org/2000/svg" xmlns:xlink="http://www.w3.org/1999/xlink" version="1.1"><rect x="0" y="0" width="900" height="600" fill="#000000"></rect><defs><linearGradient id="grad1_0" x1="33.3%" y1="0%" x2="100%" y2="100%"><stop offset="20%" stop-color="#000000" stop-opacity="1"></stop><stop offset="80%" stop-color="#000000" stop-opacity="1"></stop></linearGradient></defs><defs><linearGradient id="grad2_0" x1="0%" y1="0%" x2="66.7%" y2="100%"><stop offset="20%" stop-color="#000000" stop-opacity="1"></stop><stop offset="80%" stop-color="#000000" stop-opacity="1"></stop></linearGradient></defs><g transform="translate(900, 0)"><path d="M0 486.7C-38.5 443.4 -76.9 400 -127.3 391.8C-177.7 383.6 -240.1 410.6 -286.1 393.8C-332.1 377 -361.8 316.5 -357.6 259.8C-353.3 203.1 -315.1 150.2 -331 107.5C-346.8 64.9 -416.8 32.4 -486.7 0L0 0Z" fill="#c536b4"></path></g><g transform="translate(0, 600)"><path d="M0 -486.7C34.3 -432.1 68.6 -377.4 120.5 -370.9C172.5 -364.4 242.1 -406.2 286.1 -393.8C330.1 -381.4 348.3 -315 361.6 -262.7C374.9 -210.5 383.2 -172.4 403.2 -131C423.3 -89.6 455 -44.8 486.7 0L0 0Z" fill="#c536b4"></path></g></svg>