<svg id="visual" viewBox="0 0 900 600" width="900" height="600" xmlns="http://www.w3.org/2000/svg" xmlns:xlink="http://www.w3.org/1999/xlink" version="1.1"><path d="M0 73L82 55L164 19L245 67L327 13L409 25L491 19L573 31L655 43L736 49L818 79L900 49L900 0L818 0L736 0L655 0L573 0L491 0L409 0L327 0L245 0L164 0L82 0L0 0Z" fill="#074e89"></path><path d="M0 133L82 145L164 79L245 289L327 133L409 121L491 163L573 205L655 121L736 103L818 193L900 157L900 47L818 77L736 47L655 41L573 29L491 17L409 23L327 11L245 65L164 17L82 53L0 71Z" fill="#0087b4"></path><path d="M0 175L82 217L164 115L245 343L327 247L409 193L491 259L573 289L655 175L736 145L818 217L900 259L900 155L818 191L736 101L655 119L573 203L491 161L409 119L327 131L245 287L164 77L82 143L0 131Z" fill="#00c0cd"></path><path d="M0 205L82 283L164 175L245 355L327 259L409 217L491 325L573 313L655 205L736 181L818 271L900 331L900 257L818 215L736 143L655 173L573 287L491 257L409 191L327 245L245 341L164 113L82 215L0 173Z" fill="#59ebc7"></path><path d="M0 265L82 385L164 283L245 475L327 361L409 325L491 361L573 391L655 349L736 205L818 313L900 445L900 329L818 269L736 179L655 203L573 311L491 323L409 215L327 257L245 353L164 173L82 281L0 203Z" fill="#59ebc7"></path><path d="M0 337L82 457L164 355L245 529L327 421L409 409L491 445L573 475L655 373L736 301L818 331L900 463L900 443L818 311L736 203L655 347L573 389L491 359L409 323L327 359L245 473L164 281L82 383L0 263Z" fill="#00c0cd"></path><path d="M0 571L82 559L164 547L245 583L327 535L409 565L491 559L573 589L655 583L736 565L818 571L900 583L900 461L818 329L736 299L655 371L573 473L491 443L409 407L327 419L245 527L164 353L82 455L0 335Z" fill="#0087b4"></path><path d="M0 601L82 601L164 601L245 601L327 601L409 601L491 601L573 601L655 601L736 601L818 601L900 601L900 581L818 569L736 563L655 581L573 587L491 557L409 563L327 533L245 581L164 545L82 557L0 569Z" fill="#074e89"></path></svg>