<svg id="visual" viewBox="0 0 900 600" width="900" height="600" xmlns="http://www.w3.org/2000/svg" xmlns:xlink="http://www.w3.org/1999/xlink" version="1.1"><g stroke-width="1" stroke-linejoin="bevel"><path d="M460 363L649 213L421 217Z" fill="#1c8ec9" stroke="#1c8ec9"></path><path d="M460 363L662 437L649 213Z" fill="#196492" stroke="#196492"></path><path d="M649 213L479 0L421 217Z" fill="#16abef" stroke="#16abef"></path><path d="M649 213L665 0L479 0Z" fill="#0b324e" stroke="#0b324e"></path><path d="M900 186L665 0L649 213Z" fill="#1c7fb6" stroke="#1c7fb6"></path><path d="M460 363L489 600L662 437Z" fill="#1c8ec9" stroke="#1c8ec9"></path><path d="M254 600L489 600L460 363Z" fill="#07263e" stroke="#07263e"></path><path d="M206 167L218 382L421 217Z" fill="#165780" stroke="#165780"></path><path d="M421 217L218 382L460 363Z" fill="#0b324e" stroke="#0b324e"></path><path d="M206 0L206 167L421 217Z" fill="#165780" stroke="#165780"></path><path d="M489 600L693 600L662 437Z" fill="#07263e" stroke="#07263e"></path><path d="M900 379L900 186L649 213Z" fill="#165780" stroke="#165780"></path><path d="M900 379L649 213L662 437Z" fill="#134a6f" stroke="#134a6f"></path><path d="M900 600L900 379L662 437Z" fill="#165780" stroke="#165780"></path><path d="M479 0L206 0L421 217Z" fill="#1a9cdc" stroke="#1a9cdc"></path><path d="M218 382L254 600L460 363Z" fill="#134a6f" stroke="#134a6f"></path><path d="M900 186L900 0L665 0Z" fill="#07263e" stroke="#07263e"></path><path d="M693 600L900 600L662 437Z" fill="#1c8ec9" stroke="#1c8ec9"></path><path d="M0 0L0 192L206 167Z" fill="#196492" stroke="#196492"></path><path d="M206 167L0 365L218 382Z" fill="#1c7fb6" stroke="#1c7fb6"></path><path d="M218 382L0 600L254 600Z" fill="#165780" stroke="#165780"></path><path d="M0 192L0 365L206 167Z" fill="#1c8ec9" stroke="#1c8ec9"></path><path d="M206 0L0 0L206 167Z" fill="#1b72a4" stroke="#1b72a4"></path><path d="M0 365L0 600L218 382Z" fill="#0b324e" stroke="#0b324e"></path></g></svg>