<?xml version="1.0" standalone="no"?>
<svg xmlns:xlink="http://www.w3.org/1999/xlink" id="wave" style="transform:rotate(0deg); transition: 0.3s" viewBox="0 0 1440 170" version="1.1" xmlns="http://www.w3.org/2000/svg"><defs><linearGradient id="sw-gradient-0" x1="0" x2="0" y1="1" y2="0"><stop stop-color="rgba(242.745, 62, 243, 1)" offset="0%"/><stop stop-color="rgba(237.106, 205.564, 229.671, 1)" offset="100%"/></linearGradient></defs><path style="transform:translate(0, 0px); opacity:1" fill="url(#sw-gradient-0)" d="M0,0L10.9,22.7C21.8,45,44,91,65,110.5C87.3,130,109,125,131,110.5C152.7,96,175,74,196,76.5C218.2,79,240,108,262,99.2C283.6,91,305,45,327,39.7C349.1,34,371,68,393,87.8C414.5,108,436,113,458,110.5C480,108,502,96,524,76.5C545.5,57,567,28,589,14.2C610.9,0,633,0,655,25.5C676.4,51,698,102,720,107.7C741.8,113,764,74,785,51C807.3,28,829,23,851,19.8C872.7,17,895,17,916,25.5C938.2,34,960,51,982,51C1003.6,51,1025,34,1047,28.3C1069.1,23,1091,28,1113,31.2C1134.5,34,1156,34,1178,36.8C1200,40,1222,45,1244,53.8C1265.5,62,1287,74,1309,87.8C1330.9,102,1353,119,1375,113.3C1396.4,108,1418,79,1440,59.5C1461.8,40,1484,28,1505,28.3C1527.3,28,1549,40,1560,45.3L1570.9,51L1570.9,170L1560,170C1549.1,170,1527,170,1505,170C1483.6,170,1462,170,1440,170C1418.2,170,1396,170,1375,170C1352.7,170,1331,170,1309,170C1287.3,170,1265,170,1244,170C1221.8,170,1200,170,1178,170C1156.4,170,1135,170,1113,170C1090.9,170,1069,170,1047,170C1025.5,170,1004,170,982,170C960,170,938,170,916,170C894.5,170,873,170,851,170C829.1,170,807,170,785,170C763.6,170,742,170,720,170C698.2,170,676,170,655,170C632.7,170,611,170,589,170C567.3,170,545,170,524,170C501.8,170,480,170,458,170C436.4,170,415,170,393,170C370.9,170,349,170,327,170C305.5,170,284,170,262,170C240,170,218,170,196,170C174.5,170,153,170,131,170C109.1,170,87,170,65,170C43.6,170,22,170,11,170L0,170Z"/></svg>